Coordinates
version=1
nRows=16
nColumns=40
inDegrees=yes

Units are S.I. units (second, meters, Newtons, ...)
If the header above contains a line with 'inDegrees', this indicates whether rotational values are in degrees (yes) or radians (no).

endheader
time	pelvis_tilt	pelvis_list	pelvis_rotation	pelvis_tx	pelvis_ty	pelvis_tz	hip_flexion_r	hip_adduction_r	hip_rotation_r	knee_angle_r	knee_angle_r_beta	ankle_angle_r	subtalar_angle_r	mtp_angle_r	hip_flexion_l	hip_adduction_l	hip_rotation_l	knee_angle_l	knee_angle_l_beta	ankle_angle_l	subtalar_angle_l	mtp_angle_l	lumbar_extension	lumbar_bending	lumbar_rotation	arm_flex_r	arm_add_r	arm_rot_r	elbow_flex_r	pro_sup_r	wrist_flex_r	wrist_dev_r	arm_flex_l	arm_add_l	arm_rot_l	elbow_flex_l	pro_sup_l	wrist_flex_l	wrist_dev_l
      4.34000000	    -23.57960679	     -2.42444768	      1.45887843	     -0.45081049	      0.69090382	     -0.86991177	     79.64269879	    -18.16312303	     -7.64190665	     95.11105659	      1.66000109	     40.95831325	      0.00000000	      0.00000000	     85.58830552	    -26.72556383	     -6.50810982	     94.34874147	      1.64669618	     31.50968442	      0.00000000	      0.00000000	    -30.77218301	      0.07579181	      0.84273135	     33.46287643	    -52.45921438	     89.70680498	    103.61090703	     88.72510444	      0.00000000	      0.00000000	     32.95533663	    -53.40940744	     89.76634815	    107.91742538	     88.78058803	      0.00000000	      0.00000000
      4.34500000	    -23.01605059	     -2.38633680	      1.39006438	     -0.44866867	      0.69504161	     -0.86999618	     78.55507998	    -18.02794388	     -7.72899720	     94.63646007	      1.65171782	     40.90842419	      0.00000000	      0.00000000	     84.43105353	    -26.77788953	     -6.73948200	     93.93759769	      1.63952037	     31.46245295	      0.00000000	      0.00000000	    -31.37050030	      0.05703662	      0.88083022	     33.55728273	    -52.20109778	     89.70873559	    103.13614061	     88.71835765	      0.00000000	      0.00000000	     33.03637815	    -53.20448391	     89.76793112	    107.51622828	     88.78488595	      0.00000000	      0.00000000
      4.35000000	    -23.03573708	     -2.31808921	      1.67464023	     -0.44728986	      0.69773774	     -0.87119323	     78.18756905	    -18.33593693	     -7.74411201	     94.19492650	      1.64401161	     40.85111776	      0.00000000	      0.00000000	     83.98488936	    -26.20842670	     -6.82882728	     93.47923701	      1.63152047	     31.42533576	      0.00000000	      0.00000000	    -31.25657104	      0.24785274	      0.64495291	     33.50259933	    -52.17606848	     89.70689567	    102.93625919	     88.71814034	      0.00000000	      0.00000000	     33.05274702	    -52.96054049	     89.76886047	    107.32461160	     88.78646773	      0.00000000	      0.00000000
      4.35500000	    -22.92963641	     -2.27377516	      1.60423758	     -0.44570589	      0.70084968	     -0.87118233	     77.69657992	    -18.19861831	     -7.77042671	     93.76640547	      1.63653250	     40.76843156	      0.00000000	      0.00000000	     83.38264317	    -26.09915289	     -6.91476011	     93.03443478	      1.62375720	     31.41351731	      0.00000000	      0.00000000	    -31.25059069	      0.21950308	      0.62053747	     33.53986001	    -51.91860270	     89.71010189	    102.58771410	     88.71335300	      0.00000000	      0.00000000	     33.08959765	    -52.80840876	     89.76965652	    106.95141118	     88.78319211	      0.00000000	      0.00000000
      4.36000000	    -23.01752409	     -2.21872003	      1.53412256	     -0.44447595	      0.70311047	     -0.87132107	     77.49855204	    -18.07497427	     -7.70987500	     93.40778035	      1.63027331	     40.71851452	      0.00000000	      0.00000000	     83.09718477	    -25.96080688	     -6.97511343	     92.71079065	      1.61810855	     31.40623606	      0.00000000	      0.00000000	    -30.94681462	      0.20156976	      0.63434561	     33.46891694	    -51.78504780	     89.71328095	    102.33466135	     88.71630350	      0.00000000	      0.00000000	     33.04384019	    -52.67714517	     89.76841154	    106.77621685	     88.78388020	      0.00000000	      0.00000000
      4.36500000	    -22.58295918	     -2.09872633	      1.54165920	     -0.44221500	      0.70730394	     -0.87167595	     76.55125433	    -18.06790730	     -7.73075163	     92.88269178	      1.62110879	     40.66071146	      0.00000000	      0.00000000	     81.95464831	    -25.78338391	     -7.24743000	     92.17538706	      1.60876399	     31.51101384	      0.00000000	      0.00000000	    -31.18778667	      0.15239350	      0.57720457	     33.50302372	    -51.41788488	     89.70817126	    101.48961106	     88.71792733	      0.00000000	      0.00000000	     33.09607042	    -52.36158533	     89.76831580	    106.08107197	     88.78785761	      0.00000000	      0.00000000
      4.37000000	    -22.23455468	     -1.91217064	      1.97046068	     -0.43993414	      0.71113118	     -0.87315200	     75.69927442	    -18.61433942	     -7.77672453	     92.46523950	      1.61382287	     40.63489504	      0.00000000	      0.00000000	     80.94122325	    -25.02117757	     -7.45131321	     91.62657313	      1.59918538	     31.58573201	      0.00000000	      0.00000000	    -31.29994719	      0.28636304	      0.17156608	     33.40106887	    -51.21380919	     89.70974876	    100.93158095	     88.71813481	      0.00000000	      0.00000000	     33.14843714	    -51.99988113	     89.77109519	    105.50855121	     88.79044632	      0.00000000	      0.00000000
      4.37500000	    -22.08747230	     -1.86593039	      1.58483160	     -0.43805274	      0.71445004	     -0.87245587	     75.16046712	    -18.08080144	     -7.67645718	     91.92959910	      1.60447418	     40.55844187	      0.00000000	      0.00000000	     80.22390068	    -25.26398489	     -7.58885207	     91.18906248	      1.59154938	     31.68578279	      0.00000000	      0.00000000	    -31.13676343	      0.07390741	      0.44080624	     33.41031737	    -50.86910199	     89.71253650	    100.39783025	     88.71966498	      0.00000000	      0.00000000	     33.10462135	    -51.87705857	     89.76986883	    105.18063447	     88.79012855	      0.00000000	      0.00000000
      4.38000000	    -22.47367458	     -1.74915434	      1.57737478	     -0.43699055	      0.71646181	     -0.87274816	     75.29909852	    -18.02918143	     -7.52166873	     91.51117420	      1.59717129	     40.52568029	      0.00000000	      0.00000000	     80.19983972	    -24.94227601	     -7.68129737	     90.74830668	      1.58385674	     31.70913377	      0.00000000	      0.00000000	    -30.30879317	      0.02848805	      0.34185450	     33.36414671	    -50.70481968	     89.71149057	    100.02048645	     88.71788738	      0.00000000	      0.00000000	     33.01355634	    -51.71595622	     89.76962880	    104.81421638	     88.79035044	      0.00000000	      0.00000000
      4.38500000	    -22.16960345	     -1.70016124	      1.70281809	     -0.43462128	      0.72063526	     -0.87339946	     74.42670850	    -18.14081603	     -7.63271356	     90.94746792	      1.58733276	     40.37953844	      0.00000000	      0.00000000	     79.26951456	    -24.56730651	     -7.76371603	     90.18509817	      1.57402690	     31.68576939	      0.00000000	      0.00000000	    -30.22813784	      0.12673674	      0.29192613	     33.24288726	    -50.41335007	     89.71133134	     99.31696926	     88.71347693	      0.00000000	      0.00000000	     33.03201297	    -51.33025433	     89.77029414	    104.15506981	     88.78735218	      0.00000000	      0.00000000
      4.39000000	    -21.94601619	     -1.76224935	      1.71739685	     -0.43240706	      0.72432056	     -0.87367425	     73.65219198	    -18.05155081	     -7.79633140	     90.41345757	      1.57801252	     40.31586381	      0.00000000	      0.00000000	     78.53958335	    -24.36524877	     -7.72375749	     89.69302142	      1.56543854	     31.75792752	      0.00000000	      0.00000000	    -29.96479439	      0.25619022	      0.35197993	     33.15364935	    -50.18881583	     89.70741425	     98.75302580	     88.70947659	      0.00000000	      0.00000000	     32.99191054	    -51.01619487	     89.76716268	    103.59268109	     88.78926313	      0.00000000	      0.00000000
      4.39500000	    -21.92016860	     -1.69279563	      1.72619527	     -0.43042805	      0.72764729	     -0.87404700	     73.17131771	    -18.01937674	     -7.79600190	     89.85033800	      1.56818423	     40.22631860	      0.00000000	      0.00000000	     77.96708772	    -24.04672947	     -7.76985783	     89.15400909	      1.55603100	     31.73441839	      0.00000000	      0.00000000	    -29.45713330	      0.27554990	      0.33329964	     33.12093396	    -50.01452971	     89.70436937	     98.32228763	     88.70202660	      0.00000000	      0.00000000	     32.92647022	    -50.77322186	     89.76651840	    103.06788315	     88.78173016	      0.00000000	      0.00000000
      4.40000000	    -21.25997673	     -2.11851905	      2.03354642	     -0.42701087	      0.73239737	     -0.87462885	     71.55343403	    -18.10628400	     -8.59166257	     89.25354906	      1.55776830	     40.26357478	      0.00000000	      0.00000000	     76.92407235	    -23.75725850	     -7.30791412	     88.66725486	      1.54753554	     31.85499299	      0.00000000	      0.00000000	    -29.51071585	      0.91322465	      0.34280162	     32.96508920	    -49.67906883	     89.69988077	     97.40697984	     88.69232375	      0.00000000	      0.00000000	     32.76621047	    -50.28511901	     89.76281979	    102.14321283	     88.77559340	      0.00000000	      0.00000000
      4.40500000	    -21.12675591	     -2.08099981	      1.99508418	     -0.42482440	      0.73632380	     -0.87506809	     70.87534280	    -18.02070096	     -8.64551961	     88.58944599	      1.54617752	     40.14535737	      0.00000000	      0.00000000	     76.18945344	    -23.48169828	     -7.31778814	     88.06147596	      1.53696270	     31.82700186	      0.00000000	      0.00000000	    -29.03449681	      0.95274819	      0.43152405	     32.83384410	    -49.55680310	     89.69758539	     96.98121450	     88.68852824	      0.00000000	      0.00000000	     32.73217817	    -49.95753114	     89.76116094	    101.59932828	     88.76964656	      0.00000000	      0.00000000
      4.41000000	    -21.16495440	     -2.00390736	      1.81767076	     -0.42276558	      0.74002913	     -0.87490286	     70.43711181	    -17.74685907	     -8.58071748	     87.90648826	      1.53425765	     40.10274184	      0.00000000	      0.00000000	     75.60137463	    -23.39722496	     -7.46774133	     87.45591242	      1.52639362	     31.82999082	      0.00000000	      0.00000000	    -28.29999246	      0.84563263	      0.61669094	     32.63713278	    -49.26531740	     89.68849943	     96.29883540	     88.67531655	      0.00000000	      0.00000000	     32.60706279	    -49.65242118	     89.75644451	    100.90052678	     88.76278578	      0.00000000	      0.00000000
      4.41500000	    -20.49750510	     -2.58244698	      2.28302458	     -0.41885894	      0.74514094	     -0.87560622	     68.61750187	    -17.87553922	     -9.67042073	     87.16861636	      1.52137936	     40.29815486	      0.00000000	      0.00000000	     74.59420529	    -23.03279644	     -6.77118496	     86.87890268	      1.51632290	     31.86870790	      0.00000000	      0.00000000	    -28.19137387	      1.68637339	      0.57890266	     32.42773935	    -48.98485970	     89.67660969	     95.51076735	     88.65945553	      0.00000000	      0.00000000	     32.45774506	    -49.19720141	     89.74980905	    100.05204650	     88.75364338	      0.00000000	      0.00000000
